<mxfile host="Electron" modified="2023-12-07T21:22:35.248Z" agent="Mozilla/5.0 (X11; Linux x86_64) AppleWebKit/537.36 (KHTML, like Gecko) draw.io/22.1.2 Chrome/114.0.5735.289 Electron/25.9.4 Safari/537.36" etag="Fc5ctawoYp6J30iLJYvL" version="22.1.2" type="device">
  <diagram id="C5RBs43oDa-KdzZeNtuy" name="Page-1">
    <mxGraphModel dx="3218" dy="2094" grid="1" gridSize="10" guides="1" tooltips="1" connect="1" arrows="1" fold="1" page="1" pageScale="1" pageWidth="1169" pageHeight="827" math="0" shadow="0">
      <root>
        <mxCell id="WIyWlLk6GJQsqaUBKTNV-0" />
        <mxCell id="WIyWlLk6GJQsqaUBKTNV-1" parent="WIyWlLk6GJQsqaUBKTNV-0" />
        <mxCell id="0xxUbrqtfHlNQfprpKH4-28" value="routes" style="shape=folder;fontStyle=1;tabWidth=110;tabHeight=30;tabPosition=left;html=1;boundedLbl=1;labelInHeader=1;container=1;collapsible=0;whiteSpace=wrap;" parent="WIyWlLk6GJQsqaUBKTNV-1" vertex="1">
          <mxGeometry x="-900" y="90" width="510" height="280" as="geometry" />
        </mxCell>
        <mxCell id="0xxUbrqtfHlNQfprpKH4-29" value="" style="html=1;strokeColor=none;resizeWidth=1;resizeHeight=1;fillColor=none;part=1;connectable=0;allowArrows=0;deletable=0;whiteSpace=wrap;" parent="0xxUbrqtfHlNQfprpKH4-28" vertex="1">
          <mxGeometry width="509.99999999999994" height="196" relative="1" as="geometry">
            <mxPoint y="30" as="offset" />
          </mxGeometry>
        </mxCell>
        <mxCell id="0xxUbrqtfHlNQfprpKH4-105" value="BusMate(Flask)" style="swimlane;fontStyle=1;align=center;verticalAlign=top;childLayout=stackLayout;horizontal=1;startSize=26;horizontalStack=0;resizeParent=1;resizeParentMax=0;resizeLast=0;collapsible=1;marginBottom=0;whiteSpace=wrap;html=1;" parent="0xxUbrqtfHlNQfprpKH4-28" vertex="1">
          <mxGeometry x="40" y="62" width="160" height="34" as="geometry" />
        </mxCell>
        <mxCell id="0xxUbrqtfHlNQfprpKH4-107" value="" style="line;strokeWidth=1;fillColor=none;align=left;verticalAlign=middle;spacingTop=-1;spacingLeft=3;spacingRight=3;rotatable=0;labelPosition=right;points=[];portConstraint=eastwest;strokeColor=inherit;" parent="0xxUbrqtfHlNQfprpKH4-105" vertex="1">
          <mxGeometry y="26" width="160" height="8" as="geometry" />
        </mxCell>
        <mxCell id="0xxUbrqtfHlNQfprpKH4-109" value="..." style="swimlane;fontStyle=1;align=center;verticalAlign=top;childLayout=stackLayout;horizontal=1;startSize=26;horizontalStack=0;resizeParent=1;resizeParentMax=0;resizeLast=0;collapsible=1;marginBottom=0;whiteSpace=wrap;html=1;" parent="0xxUbrqtfHlNQfprpKH4-28" vertex="1">
          <mxGeometry x="220" y="160" width="160" height="34" as="geometry" />
        </mxCell>
        <mxCell id="0xxUbrqtfHlNQfprpKH4-110" value="" style="line;strokeWidth=1;fillColor=none;align=left;verticalAlign=middle;spacingTop=-1;spacingLeft=3;spacingRight=3;rotatable=0;labelPosition=right;points=[];portConstraint=eastwest;strokeColor=inherit;" parent="0xxUbrqtfHlNQfprpKH4-109" vertex="1">
          <mxGeometry y="26" width="160" height="8" as="geometry" />
        </mxCell>
        <mxCell id="0xxUbrqtfHlNQfprpKH4-111" value="Form" style="swimlane;fontStyle=1;align=center;verticalAlign=top;childLayout=stackLayout;horizontal=1;startSize=26;horizontalStack=0;resizeParent=1;resizeParentMax=0;resizeLast=0;collapsible=1;marginBottom=0;whiteSpace=wrap;html=1;" parent="0xxUbrqtfHlNQfprpKH4-28" vertex="1">
          <mxGeometry x="140" y="110" width="160" height="34" as="geometry" />
        </mxCell>
        <mxCell id="0xxUbrqtfHlNQfprpKH4-112" value="" style="line;strokeWidth=1;fillColor=none;align=left;verticalAlign=middle;spacingTop=-1;spacingLeft=3;spacingRight=3;rotatable=0;labelPosition=right;points=[];portConstraint=eastwest;strokeColor=inherit;" parent="0xxUbrqtfHlNQfprpKH4-111" vertex="1">
          <mxGeometry y="26" width="160" height="8" as="geometry" />
        </mxCell>
        <mxCell id="0xxUbrqtfHlNQfprpKH4-32" value="api" style="shape=folder;fontStyle=1;tabWidth=110;tabHeight=30;tabPosition=left;html=1;boundedLbl=1;labelInHeader=1;container=1;collapsible=0;whiteSpace=wrap;" parent="WIyWlLk6GJQsqaUBKTNV-1" vertex="1">
          <mxGeometry x="-320" y="50" width="820" height="440" as="geometry" />
        </mxCell>
        <mxCell id="0xxUbrqtfHlNQfprpKH4-33" value="" style="html=1;strokeColor=none;resizeWidth=1;resizeHeight=1;fillColor=none;part=1;connectable=0;allowArrows=0;deletable=0;whiteSpace=wrap;" parent="0xxUbrqtfHlNQfprpKH4-32" vertex="1">
          <mxGeometry width="819.9999999999999" height="308" relative="1" as="geometry">
            <mxPoint y="30" as="offset" />
          </mxGeometry>
        </mxCell>
        <mxCell id="LHFAvSVSOQKZk2P5IHYc-47" value="GoogleMaps" style="swimlane;fontStyle=1;align=center;verticalAlign=top;childLayout=stackLayout;horizontal=1;startSize=26;horizontalStack=0;resizeParent=1;resizeParentMax=0;resizeLast=0;collapsible=1;marginBottom=0;whiteSpace=wrap;html=1;" parent="0xxUbrqtfHlNQfprpKH4-32" vertex="1">
          <mxGeometry x="560" y="60" width="230" height="86" as="geometry" />
        </mxCell>
        <mxCell id="LHFAvSVSOQKZk2P5IHYc-48" value="+ field: type" style="text;strokeColor=none;fillColor=none;align=left;verticalAlign=top;spacingLeft=4;spacingRight=4;overflow=hidden;rotatable=0;points=[[0,0.5],[1,0.5]];portConstraint=eastwest;whiteSpace=wrap;html=1;" parent="LHFAvSVSOQKZk2P5IHYc-47" vertex="1">
          <mxGeometry y="26" width="230" height="26" as="geometry" />
        </mxCell>
        <mxCell id="LHFAvSVSOQKZk2P5IHYc-49" value="" style="line;strokeWidth=1;fillColor=none;align=left;verticalAlign=middle;spacingTop=-1;spacingLeft=3;spacingRight=3;rotatable=0;labelPosition=right;points=[];portConstraint=eastwest;strokeColor=inherit;" parent="LHFAvSVSOQKZk2P5IHYc-47" vertex="1">
          <mxGeometry y="52" width="230" height="8" as="geometry" />
        </mxCell>
        <mxCell id="LHFAvSVSOQKZk2P5IHYc-50" value="+ get_map(Location): list[]" style="text;strokeColor=none;fillColor=none;align=left;verticalAlign=top;spacingLeft=4;spacingRight=4;overflow=hidden;rotatable=0;points=[[0,0.5],[1,0.5]];portConstraint=eastwest;whiteSpace=wrap;html=1;" parent="LHFAvSVSOQKZk2P5IHYc-47" vertex="1">
          <mxGeometry y="60" width="230" height="26" as="geometry" />
        </mxCell>
        <mxCell id="LHFAvSVSOQKZk2P5IHYc-43" value="Database" style="swimlane;fontStyle=1;align=center;verticalAlign=top;childLayout=stackLayout;horizontal=1;startSize=26;horizontalStack=0;resizeParent=1;resizeParentMax=0;resizeLast=0;collapsible=1;marginBottom=0;whiteSpace=wrap;html=1;" parent="0xxUbrqtfHlNQfprpKH4-32" vertex="1">
          <mxGeometry x="370" y="200" width="286.9" height="190" as="geometry" />
        </mxCell>
        <mxCell id="LHFAvSVSOQKZk2P5IHYc-45" value="" style="line;strokeWidth=1;fillColor=none;align=left;verticalAlign=middle;spacingTop=-1;spacingLeft=3;spacingRight=3;rotatable=0;labelPosition=right;points=[];portConstraint=eastwest;strokeColor=inherit;" parent="LHFAvSVSOQKZk2P5IHYc-43" vertex="1">
          <mxGeometry y="26" width="286.9" height="8" as="geometry" />
        </mxCell>
        <mxCell id="0xxUbrqtfHlNQfprpKH4-84" value="+ register(str, str, str, ...): bool" style="text;strokeColor=none;fillColor=none;align=left;verticalAlign=top;spacingLeft=4;spacingRight=4;overflow=hidden;rotatable=0;points=[[0,0.5],[1,0.5]];portConstraint=eastwest;whiteSpace=wrap;html=1;" parent="LHFAvSVSOQKZk2P5IHYc-43" vertex="1">
          <mxGeometry y="34" width="286.9" height="26" as="geometry" />
        </mxCell>
        <mxCell id="0xxUbrqtfHlNQfprpKH4-85" value="+ login(str, str): bool" style="text;strokeColor=none;fillColor=none;align=left;verticalAlign=top;spacingLeft=4;spacingRight=4;overflow=hidden;rotatable=0;points=[[0,0.5],[1,0.5]];portConstraint=eastwest;whiteSpace=wrap;html=1;" parent="LHFAvSVSOQKZk2P5IHYc-43" vertex="1">
          <mxGeometry y="60" width="286.9" height="26" as="geometry" />
        </mxCell>
        <mxCell id="0xxUbrqtfHlNQfprpKH4-81" value="+ get_trips(Location): list[Trip]" style="text;strokeColor=none;fillColor=none;align=left;verticalAlign=top;spacingLeft=4;spacingRight=4;overflow=hidden;rotatable=0;points=[[0,0.5],[1,0.5]];portConstraint=eastwest;whiteSpace=wrap;html=1;" parent="LHFAvSVSOQKZk2P5IHYc-43" vertex="1">
          <mxGeometry y="86" width="286.9" height="26" as="geometry" />
        </mxCell>
        <mxCell id="0xxUbrqtfHlNQfprpKH4-82" value="+ add_trip(...): bool" style="text;strokeColor=none;fillColor=none;align=left;verticalAlign=top;spacingLeft=4;spacingRight=4;overflow=hidden;rotatable=0;points=[[0,0.5],[1,0.5]];portConstraint=eastwest;whiteSpace=wrap;html=1;" parent="LHFAvSVSOQKZk2P5IHYc-43" vertex="1">
          <mxGeometry y="112" width="286.9" height="26" as="geometry" />
        </mxCell>
        <mxCell id="LHFAvSVSOQKZk2P5IHYc-46" value="+ edit_trip(...): bool" style="text;strokeColor=none;fillColor=none;align=left;verticalAlign=top;spacingLeft=4;spacingRight=4;overflow=hidden;rotatable=0;points=[[0,0.5],[1,0.5]];portConstraint=eastwest;whiteSpace=wrap;html=1;" parent="LHFAvSVSOQKZk2P5IHYc-43" vertex="1">
          <mxGeometry y="138" width="286.9" height="26" as="geometry" />
        </mxCell>
        <mxCell id="0xxUbrqtfHlNQfprpKH4-103" value="..." style="text;strokeColor=none;fillColor=none;align=left;verticalAlign=top;spacingLeft=4;spacingRight=4;overflow=hidden;rotatable=0;points=[[0,0.5],[1,0.5]];portConstraint=eastwest;whiteSpace=wrap;html=1;" parent="LHFAvSVSOQKZk2P5IHYc-43" vertex="1">
          <mxGeometry y="164" width="286.9" height="26" as="geometry" />
        </mxCell>
        <mxCell id="LHFAvSVSOQKZk2P5IHYc-69" value="Bank" style="swimlane;fontStyle=1;align=center;verticalAlign=top;childLayout=stackLayout;horizontal=1;startSize=26;horizontalStack=0;resizeParent=1;resizeParentMax=0;resizeLast=0;collapsible=1;marginBottom=0;whiteSpace=wrap;html=1;" parent="0xxUbrqtfHlNQfprpKH4-32" vertex="1">
          <mxGeometry x="79.99760563380295" y="146" width="241.16084507042254" height="130" as="geometry" />
        </mxCell>
        <mxCell id="LHFAvSVSOQKZk2P5IHYc-71" value="" style="line;strokeWidth=1;fillColor=none;align=left;verticalAlign=middle;spacingTop=-1;spacingLeft=3;spacingRight=3;rotatable=0;labelPosition=right;points=[];portConstraint=eastwest;strokeColor=inherit;" parent="LHFAvSVSOQKZk2P5IHYc-69" vertex="1">
          <mxGeometry y="26" width="241.16084507042254" height="8" as="geometry" />
        </mxCell>
        <mxCell id="LHFAvSVSOQKZk2P5IHYc-72" value="link(BankCard): bool" style="text;strokeColor=none;fillColor=none;align=left;verticalAlign=top;spacingLeft=4;spacingRight=4;overflow=hidden;rotatable=0;points=[[0,0.5],[1,0.5]];portConstraint=eastwest;whiteSpace=wrap;html=1;" parent="LHFAvSVSOQKZk2P5IHYc-69" vertex="1">
          <mxGeometry y="34" width="241.16084507042254" height="26" as="geometry" />
        </mxCell>
        <mxCell id="0xxUbrqtfHlNQfprpKH4-0" value="pay_amount(int): bool" style="text;strokeColor=none;fillColor=none;align=left;verticalAlign=top;spacingLeft=4;spacingRight=4;overflow=hidden;rotatable=0;points=[[0,0.5],[1,0.5]];portConstraint=eastwest;whiteSpace=wrap;html=1;" parent="LHFAvSVSOQKZk2P5IHYc-69" vertex="1">
          <mxGeometry y="60" width="241.16084507042254" height="26" as="geometry" />
        </mxCell>
        <mxCell id="0xxUbrqtfHlNQfprpKH4-17" value="send_amount(BankCard, int): bool" style="text;strokeColor=none;fillColor=none;align=left;verticalAlign=top;spacingLeft=4;spacingRight=4;overflow=hidden;rotatable=0;points=[[0,0.5],[1,0.5]];portConstraint=eastwest;whiteSpace=wrap;html=1;" parent="LHFAvSVSOQKZk2P5IHYc-69" vertex="1">
          <mxGeometry y="86" width="241.16084507042254" height="44" as="geometry" />
        </mxCell>
        <mxCell id="0xxUbrqtfHlNQfprpKH4-19" value="GPS" style="swimlane;fontStyle=1;align=center;verticalAlign=top;childLayout=stackLayout;horizontal=1;startSize=26;horizontalStack=0;resizeParent=1;resizeParentMax=0;resizeLast=0;collapsible=1;marginBottom=0;whiteSpace=wrap;html=1;" parent="0xxUbrqtfHlNQfprpKH4-32" vertex="1">
          <mxGeometry x="346.48" y="70" width="183.52" height="60" as="geometry" />
        </mxCell>
        <mxCell id="0xxUbrqtfHlNQfprpKH4-21" value="" style="line;strokeWidth=1;fillColor=none;align=left;verticalAlign=middle;spacingTop=-1;spacingLeft=3;spacingRight=3;rotatable=0;labelPosition=right;points=[];portConstraint=eastwest;strokeColor=inherit;" parent="0xxUbrqtfHlNQfprpKH4-19" vertex="1">
          <mxGeometry y="26" width="183.52" height="8" as="geometry" />
        </mxCell>
        <mxCell id="0xxUbrqtfHlNQfprpKH4-22" value="+ get_my_location(): Location" style="text;strokeColor=none;fillColor=none;align=left;verticalAlign=top;spacingLeft=4;spacingRight=4;overflow=hidden;rotatable=0;points=[[0,0.5],[1,0.5]];portConstraint=eastwest;whiteSpace=wrap;html=1;" parent="0xxUbrqtfHlNQfprpKH4-19" vertex="1">
          <mxGeometry y="34" width="183.52" height="26" as="geometry" />
        </mxCell>
        <mxCell id="0xxUbrqtfHlNQfprpKH4-30" value="models" style="shape=folder;fontStyle=1;tabWidth=110;tabHeight=30;tabPosition=left;html=1;boundedLbl=1;labelInHeader=1;container=1;collapsible=0;whiteSpace=wrap;" parent="WIyWlLk6GJQsqaUBKTNV-1" vertex="1">
          <mxGeometry x="-800" y="-680" width="1090" height="660" as="geometry" />
        </mxCell>
        <mxCell id="0xxUbrqtfHlNQfprpKH4-31" value="" style="html=1;strokeColor=none;resizeWidth=1;resizeHeight=1;fillColor=none;part=1;connectable=0;allowArrows=0;deletable=0;whiteSpace=wrap;" parent="0xxUbrqtfHlNQfprpKH4-30" vertex="1">
          <mxGeometry width="40" height="10" relative="1" as="geometry">
            <mxPoint x="790" y="290" as="offset" />
          </mxGeometry>
        </mxCell>
        <mxCell id="LHFAvSVSOQKZk2P5IHYc-27" value="BankCard" style="swimlane;fontStyle=1;align=center;verticalAlign=top;childLayout=stackLayout;horizontal=1;startSize=26;horizontalStack=0;resizeParent=1;resizeParentMax=0;resizeLast=0;collapsible=1;marginBottom=0;whiteSpace=wrap;html=1;" parent="0xxUbrqtfHlNQfprpKH4-30" vertex="1">
          <mxGeometry x="50" y="70" width="200" height="216" as="geometry" />
        </mxCell>
        <mxCell id="LHFAvSVSOQKZk2P5IHYc-28" value="- CARD_ID: str" style="text;strokeColor=none;fillColor=none;align=left;verticalAlign=top;spacingLeft=4;spacingRight=4;overflow=hidden;rotatable=0;points=[[0,0.5],[1,0.5]];portConstraint=eastwest;whiteSpace=wrap;html=1;" parent="LHFAvSVSOQKZk2P5IHYc-27" vertex="1">
          <mxGeometry y="26" width="200" height="26" as="geometry" />
        </mxCell>
        <mxCell id="0xxUbrqtfHlNQfprpKH4-39" value="- CARDHOLDER_NAME: str" style="text;strokeColor=none;fillColor=none;align=left;verticalAlign=top;spacingLeft=4;spacingRight=4;overflow=hidden;rotatable=0;points=[[0,0.5],[1,0.5]];portConstraint=eastwest;whiteSpace=wrap;html=1;" parent="LHFAvSVSOQKZk2P5IHYc-27" vertex="1">
          <mxGeometry y="52" width="200" height="26" as="geometry" />
        </mxCell>
        <mxCell id="0xxUbrqtfHlNQfprpKH4-37" value="- EXPIRE_DATE: date" style="text;strokeColor=none;fillColor=none;align=left;verticalAlign=top;spacingLeft=4;spacingRight=4;overflow=hidden;rotatable=0;points=[[0,0.5],[1,0.5]];portConstraint=eastwest;whiteSpace=wrap;html=1;" parent="LHFAvSVSOQKZk2P5IHYc-27" vertex="1">
          <mxGeometry y="78" width="200" height="26" as="geometry" />
        </mxCell>
        <mxCell id="0xxUbrqtfHlNQfprpKH4-38" value="- CVV: int" style="text;strokeColor=none;fillColor=none;align=left;verticalAlign=top;spacingLeft=4;spacingRight=4;overflow=hidden;rotatable=0;points=[[0,0.5],[1,0.5]];portConstraint=eastwest;whiteSpace=wrap;html=1;" parent="LHFAvSVSOQKZk2P5IHYc-27" vertex="1">
          <mxGeometry y="104" width="200" height="26" as="geometry" />
        </mxCell>
        <mxCell id="LHFAvSVSOQKZk2P5IHYc-29" value="" style="line;strokeWidth=1;fillColor=none;align=left;verticalAlign=middle;spacingTop=-1;spacingLeft=3;spacingRight=3;rotatable=0;labelPosition=right;points=[];portConstraint=eastwest;strokeColor=inherit;" parent="LHFAvSVSOQKZk2P5IHYc-27" vertex="1">
          <mxGeometry y="130" width="200" height="8" as="geometry" />
        </mxCell>
        <mxCell id="0xxUbrqtfHlNQfprpKH4-40" value="+ withdraw(int): bool" style="text;strokeColor=none;fillColor=none;align=left;verticalAlign=top;spacingLeft=4;spacingRight=4;overflow=hidden;rotatable=0;points=[[0,0.5],[1,0.5]];portConstraint=eastwest;whiteSpace=wrap;html=1;" parent="LHFAvSVSOQKZk2P5IHYc-27" vertex="1">
          <mxGeometry y="138" width="200" height="26" as="geometry" />
        </mxCell>
        <mxCell id="0xxUbrqtfHlNQfprpKH4-44" value="+ deposit(int): bool" style="text;strokeColor=none;fillColor=none;align=left;verticalAlign=top;spacingLeft=4;spacingRight=4;overflow=hidden;rotatable=0;points=[[0,0.5],[1,0.5]];portConstraint=eastwest;whiteSpace=wrap;html=1;" parent="LHFAvSVSOQKZk2P5IHYc-27" vertex="1">
          <mxGeometry y="164" width="200" height="26" as="geometry" />
        </mxCell>
        <mxCell id="0xxUbrqtfHlNQfprpKH4-41" value="+ get_card_info(): str" style="text;strokeColor=none;fillColor=none;align=left;verticalAlign=top;spacingLeft=4;spacingRight=4;overflow=hidden;rotatable=0;points=[[0,0.5],[1,0.5]];portConstraint=eastwest;whiteSpace=wrap;html=1;" parent="LHFAvSVSOQKZk2P5IHYc-27" vertex="1">
          <mxGeometry y="190" width="200" height="26" as="geometry" />
        </mxCell>
        <mxCell id="LHFAvSVSOQKZk2P5IHYc-11" value="User" style="swimlane;fontStyle=1;align=center;verticalAlign=top;childLayout=stackLayout;horizontal=1;startSize=26;horizontalStack=0;resizeParent=1;resizeParentMax=0;resizeLast=0;collapsible=1;marginBottom=0;whiteSpace=wrap;html=1;" parent="0xxUbrqtfHlNQfprpKH4-30" vertex="1">
          <mxGeometry x="350" y="60" width="160" height="164" as="geometry" />
        </mxCell>
        <mxCell id="LHFAvSVSOQKZk2P5IHYc-12" value="- full_name: str" style="text;strokeColor=none;fillColor=none;align=left;verticalAlign=top;spacingLeft=4;spacingRight=4;overflow=hidden;rotatable=0;points=[[0,0.5],[1,0.5]];portConstraint=eastwest;whiteSpace=wrap;html=1;" parent="LHFAvSVSOQKZk2P5IHYc-11" vertex="1">
          <mxGeometry y="26" width="160" height="26" as="geometry" />
        </mxCell>
        <mxCell id="0xxUbrqtfHlNQfprpKH4-35" value="- phone_number: str" style="text;strokeColor=none;fillColor=none;align=left;verticalAlign=top;spacingLeft=4;spacingRight=4;overflow=hidden;rotatable=0;points=[[0,0.5],[1,0.5]];portConstraint=eastwest;whiteSpace=wrap;html=1;" parent="LHFAvSVSOQKZk2P5IHYc-11" vertex="1">
          <mxGeometry y="52" width="160" height="26" as="geometry" />
        </mxCell>
        <mxCell id="LHFAvSVSOQKZk2P5IHYc-13" value="" style="line;strokeWidth=1;fillColor=none;align=left;verticalAlign=middle;spacingTop=-1;spacingLeft=3;spacingRight=3;rotatable=0;labelPosition=right;points=[];portConstraint=eastwest;strokeColor=inherit;" parent="LHFAvSVSOQKZk2P5IHYc-11" vertex="1">
          <mxGeometry y="78" width="160" height="8" as="geometry" />
        </mxCell>
        <mxCell id="LHFAvSVSOQKZk2P5IHYc-14" value="+ get_full_name(): str" style="text;strokeColor=none;fillColor=none;align=left;verticalAlign=top;spacingLeft=4;spacingRight=4;overflow=hidden;rotatable=0;points=[[0,0.5],[1,0.5]];portConstraint=eastwest;whiteSpace=wrap;html=1;" parent="LHFAvSVSOQKZk2P5IHYc-11" vertex="1">
          <mxGeometry y="86" width="160" height="26" as="geometry" />
        </mxCell>
        <mxCell id="0xxUbrqtfHlNQfprpKH4-43" value="+ get_phone_number(): str" style="text;strokeColor=none;fillColor=none;align=left;verticalAlign=top;spacingLeft=4;spacingRight=4;overflow=hidden;rotatable=0;points=[[0,0.5],[1,0.5]];portConstraint=eastwest;whiteSpace=wrap;html=1;" parent="LHFAvSVSOQKZk2P5IHYc-11" vertex="1">
          <mxGeometry y="112" width="160" height="26" as="geometry" />
        </mxCell>
        <mxCell id="0xxUbrqtfHlNQfprpKH4-61" value="+ get_location(): Location" style="text;strokeColor=none;fillColor=none;align=left;verticalAlign=top;spacingLeft=4;spacingRight=4;overflow=hidden;rotatable=0;points=[[0,0.5],[1,0.5]];portConstraint=eastwest;whiteSpace=wrap;html=1;" parent="LHFAvSVSOQKZk2P5IHYc-11" vertex="1">
          <mxGeometry y="138" width="160" height="26" as="geometry" />
        </mxCell>
        <mxCell id="LHFAvSVSOQKZk2P5IHYc-57" value="0..1" style="endArrow=open;html=1;endSize=12;startArrow=diamondThin;startSize=14;startFill=0;edgeStyle=orthogonalEdgeStyle;align=left;verticalAlign=bottom;rounded=0;" parent="0xxUbrqtfHlNQfprpKH4-30" source="LHFAvSVSOQKZk2P5IHYc-11" target="LHFAvSVSOQKZk2P5IHYc-27" edge="1">
          <mxGeometry x="-1" y="3" relative="1" as="geometry">
            <mxPoint x="330" y="370" as="sourcePoint" />
            <mxPoint x="490" y="370" as="targetPoint" />
          </mxGeometry>
        </mxCell>
        <mxCell id="LHFAvSVSOQKZk2P5IHYc-39" value="Ride" style="swimlane;fontStyle=1;align=center;verticalAlign=top;childLayout=stackLayout;horizontal=1;startSize=26;horizontalStack=0;resizeParent=1;resizeParentMax=0;resizeLast=0;collapsible=1;marginBottom=0;whiteSpace=wrap;html=1;" parent="0xxUbrqtfHlNQfprpKH4-30" vertex="1">
          <mxGeometry x="70" y="440" width="190" height="164" as="geometry" />
        </mxCell>
        <mxCell id="LHFAvSVSOQKZk2P5IHYc-40" value="- IS_CASH: bool" style="text;strokeColor=none;fillColor=none;align=left;verticalAlign=top;spacingLeft=4;spacingRight=4;overflow=hidden;rotatable=0;points=[[0,0.5],[1,0.5]];portConstraint=eastwest;whiteSpace=wrap;html=1;" parent="LHFAvSVSOQKZk2P5IHYc-39" vertex="1">
          <mxGeometry y="26" width="190" height="26" as="geometry" />
        </mxCell>
        <mxCell id="0xxUbrqtfHlNQfprpKH4-62" value="- PASSENGERS_COUNT: INT" style="text;strokeColor=none;fillColor=none;align=left;verticalAlign=top;spacingLeft=4;spacingRight=4;overflow=hidden;rotatable=0;points=[[0,0.5],[1,0.5]];portConstraint=eastwest;whiteSpace=wrap;html=1;" parent="LHFAvSVSOQKZk2P5IHYc-39" vertex="1">
          <mxGeometry y="52" width="190" height="26" as="geometry" />
        </mxCell>
        <mxCell id="LHFAvSVSOQKZk2P5IHYc-41" value="" style="line;strokeWidth=1;fillColor=none;align=left;verticalAlign=middle;spacingTop=-1;spacingLeft=3;spacingRight=3;rotatable=0;labelPosition=right;points=[];portConstraint=eastwest;strokeColor=inherit;" parent="LHFAvSVSOQKZk2P5IHYc-39" vertex="1">
          <mxGeometry y="78" width="190" height="8" as="geometry" />
        </mxCell>
        <mxCell id="LHFAvSVSOQKZk2P5IHYc-42" value="+ get_ride_info(): str" style="text;strokeColor=none;fillColor=none;align=left;verticalAlign=top;spacingLeft=4;spacingRight=4;overflow=hidden;rotatable=0;points=[[0,0.5],[1,0.5]];portConstraint=eastwest;whiteSpace=wrap;html=1;" parent="LHFAvSVSOQKZk2P5IHYc-39" vertex="1">
          <mxGeometry y="86" width="190" height="26" as="geometry" />
        </mxCell>
        <mxCell id="0xxUbrqtfHlNQfprpKH4-64" value="+ accept(int): None" style="text;strokeColor=none;fillColor=none;align=left;verticalAlign=top;spacingLeft=4;spacingRight=4;overflow=hidden;rotatable=0;points=[[0,0.5],[1,0.5]];portConstraint=eastwest;whiteSpace=wrap;html=1;" parent="LHFAvSVSOQKZk2P5IHYc-39" vertex="1">
          <mxGeometry y="112" width="190" height="26" as="geometry" />
        </mxCell>
        <mxCell id="0xxUbrqtfHlNQfprpKH4-65" value="+ reject(): None" style="text;strokeColor=none;fillColor=none;align=left;verticalAlign=top;spacingLeft=4;spacingRight=4;overflow=hidden;rotatable=0;points=[[0,0.5],[1,0.5]];portConstraint=eastwest;whiteSpace=wrap;html=1;" parent="LHFAvSVSOQKZk2P5IHYc-39" vertex="1">
          <mxGeometry y="138" width="190" height="26" as="geometry" />
        </mxCell>
        <mxCell id="LHFAvSVSOQKZk2P5IHYc-31" value="Trip" style="swimlane;fontStyle=1;align=center;verticalAlign=top;childLayout=stackLayout;horizontal=1;startSize=26;horizontalStack=0;resizeParent=1;resizeParentMax=0;resizeLast=0;collapsible=1;marginBottom=0;whiteSpace=wrap;html=1;" parent="0xxUbrqtfHlNQfprpKH4-30" vertex="1">
          <mxGeometry x="450" y="480" width="205" height="138" as="geometry" />
        </mxCell>
        <mxCell id="LHFAvSVSOQKZk2P5IHYc-32" value="- ROUTE: Route" style="text;strokeColor=none;fillColor=none;align=left;verticalAlign=top;spacingLeft=4;spacingRight=4;overflow=hidden;rotatable=0;points=[[0,0.5],[1,0.5]];portConstraint=eastwest;whiteSpace=wrap;html=1;" parent="LHFAvSVSOQKZk2P5IHYc-31" vertex="1">
          <mxGeometry y="26" width="205" height="26" as="geometry" />
        </mxCell>
        <mxCell id="LHFAvSVSOQKZk2P5IHYc-33" value="" style="line;strokeWidth=1;fillColor=none;align=left;verticalAlign=middle;spacingTop=-1;spacingLeft=3;spacingRight=3;rotatable=0;labelPosition=right;points=[];portConstraint=eastwest;strokeColor=inherit;" parent="LHFAvSVSOQKZk2P5IHYc-31" vertex="1">
          <mxGeometry y="52" width="205" height="8" as="geometry" />
        </mxCell>
        <mxCell id="0xxUbrqtfHlNQfprpKH4-66" value="+ get_trip_info(): str" style="text;strokeColor=none;fillColor=none;align=left;verticalAlign=top;spacingLeft=4;spacingRight=4;overflow=hidden;rotatable=0;points=[[0,0.5],[1,0.5]];portConstraint=eastwest;whiteSpace=wrap;html=1;" parent="LHFAvSVSOQKZk2P5IHYc-31" vertex="1">
          <mxGeometry y="60" width="205" height="26" as="geometry" />
        </mxCell>
        <mxCell id="0xxUbrqtfHlNQfprpKH4-67" value="+ get_driver_info(): str" style="text;strokeColor=none;fillColor=none;align=left;verticalAlign=top;spacingLeft=4;spacingRight=4;overflow=hidden;rotatable=0;points=[[0,0.5],[1,0.5]];portConstraint=eastwest;whiteSpace=wrap;html=1;" parent="LHFAvSVSOQKZk2P5IHYc-31" vertex="1">
          <mxGeometry y="86" width="205" height="26" as="geometry" />
        </mxCell>
        <mxCell id="LHFAvSVSOQKZk2P5IHYc-34" value="+ get_route_path(): list[Location]" style="text;strokeColor=none;fillColor=none;align=left;verticalAlign=top;spacingLeft=4;spacingRight=4;overflow=hidden;rotatable=0;points=[[0,0.5],[1,0.5]];portConstraint=eastwest;whiteSpace=wrap;html=1;" parent="LHFAvSVSOQKZk2P5IHYc-31" vertex="1">
          <mxGeometry y="112" width="205" height="26" as="geometry" />
        </mxCell>
        <mxCell id="LHFAvSVSOQKZk2P5IHYc-63" value="" style="endArrow=none;html=1;edgeStyle=orthogonalEdgeStyle;rounded=0;" parent="0xxUbrqtfHlNQfprpKH4-30" source="LHFAvSVSOQKZk2P5IHYc-31" target="LHFAvSVSOQKZk2P5IHYc-39" edge="1">
          <mxGeometry relative="1" as="geometry">
            <mxPoint x="370" y="336" as="sourcePoint" />
            <mxPoint x="370" y="410" as="targetPoint" />
          </mxGeometry>
        </mxCell>
        <mxCell id="LHFAvSVSOQKZk2P5IHYc-15" value="Passenger" style="swimlane;fontStyle=1;align=center;verticalAlign=top;childLayout=stackLayout;horizontal=1;startSize=26;horizontalStack=0;resizeParent=1;resizeParentMax=0;resizeLast=0;collapsible=1;marginBottom=0;whiteSpace=wrap;html=1;" parent="0xxUbrqtfHlNQfprpKH4-30" vertex="1">
          <mxGeometry x="160" y="330" width="160" height="34" as="geometry" />
        </mxCell>
        <mxCell id="LHFAvSVSOQKZk2P5IHYc-17" value="" style="line;strokeWidth=1;fillColor=none;align=left;verticalAlign=middle;spacingTop=-1;spacingLeft=3;spacingRight=3;rotatable=0;labelPosition=right;points=[];portConstraint=eastwest;strokeColor=inherit;" parent="LHFAvSVSOQKZk2P5IHYc-15" vertex="1">
          <mxGeometry y="26" width="160" height="8" as="geometry" />
        </mxCell>
        <mxCell id="LHFAvSVSOQKZk2P5IHYc-55" value="" style="endArrow=block;endSize=16;endFill=0;html=1;rounded=0;edgeStyle=orthogonalEdgeStyle;" parent="0xxUbrqtfHlNQfprpKH4-30" source="LHFAvSVSOQKZk2P5IHYc-15" target="LHFAvSVSOQKZk2P5IHYc-11" edge="1">
          <mxGeometry width="160" relative="1" as="geometry">
            <mxPoint x="230" y="410" as="sourcePoint" />
            <mxPoint x="390" y="410" as="targetPoint" />
            <Array as="points">
              <mxPoint x="250" y="310" />
              <mxPoint x="430" y="310" />
            </Array>
          </mxGeometry>
        </mxCell>
        <mxCell id="LHFAvSVSOQKZk2P5IHYc-66" value="" style="endArrow=none;html=1;edgeStyle=orthogonalEdgeStyle;rounded=0;" parent="0xxUbrqtfHlNQfprpKH4-30" source="LHFAvSVSOQKZk2P5IHYc-15" target="LHFAvSVSOQKZk2P5IHYc-39" edge="1">
          <mxGeometry relative="1" as="geometry">
            <mxPoint x="330" y="370" as="sourcePoint" />
            <mxPoint x="490" y="370" as="targetPoint" />
          </mxGeometry>
        </mxCell>
        <mxCell id="LHFAvSVSOQKZk2P5IHYc-19" value="Driver" style="swimlane;fontStyle=1;align=center;verticalAlign=top;childLayout=stackLayout;horizontal=1;startSize=26;horizontalStack=0;resizeParent=1;resizeParentMax=0;resizeLast=0;collapsible=1;marginBottom=0;whiteSpace=wrap;html=1;" parent="0xxUbrqtfHlNQfprpKH4-30" vertex="1">
          <mxGeometry x="560" y="330" width="160" height="86" as="geometry" />
        </mxCell>
        <mxCell id="LHFAvSVSOQKZk2P5IHYc-21" value="" style="line;strokeWidth=1;fillColor=none;align=left;verticalAlign=middle;spacingTop=-1;spacingLeft=3;spacingRight=3;rotatable=0;labelPosition=right;points=[];portConstraint=eastwest;strokeColor=inherit;" parent="LHFAvSVSOQKZk2P5IHYc-19" vertex="1">
          <mxGeometry y="26" width="160" height="8" as="geometry" />
        </mxCell>
        <mxCell id="0xxUbrqtfHlNQfprpKH4-59" value="+ get_routes(): list[Route]" style="text;strokeColor=none;fillColor=none;align=left;verticalAlign=top;spacingLeft=4;spacingRight=4;overflow=hidden;rotatable=0;points=[[0,0.5],[1,0.5]];portConstraint=eastwest;whiteSpace=wrap;html=1;" parent="LHFAvSVSOQKZk2P5IHYc-19" vertex="1">
          <mxGeometry y="34" width="160" height="26" as="geometry" />
        </mxCell>
        <mxCell id="0xxUbrqtfHlNQfprpKH4-60" value="+ get_microbus(): Microbus" style="text;strokeColor=none;fillColor=none;align=left;verticalAlign=top;spacingLeft=4;spacingRight=4;overflow=hidden;rotatable=0;points=[[0,0.5],[1,0.5]];portConstraint=eastwest;whiteSpace=wrap;html=1;" parent="LHFAvSVSOQKZk2P5IHYc-19" vertex="1">
          <mxGeometry y="60" width="160" height="26" as="geometry" />
        </mxCell>
        <mxCell id="LHFAvSVSOQKZk2P5IHYc-60" value="" style="endArrow=none;html=1;edgeStyle=orthogonalEdgeStyle;rounded=0;" parent="0xxUbrqtfHlNQfprpKH4-30" source="LHFAvSVSOQKZk2P5IHYc-19" target="LHFAvSVSOQKZk2P5IHYc-31" edge="1">
          <mxGeometry relative="1" as="geometry">
            <mxPoint x="330" y="370" as="sourcePoint" />
            <mxPoint x="490" y="370" as="targetPoint" />
          </mxGeometry>
        </mxCell>
        <mxCell id="LHFAvSVSOQKZk2P5IHYc-56" value="" style="endArrow=block;endSize=16;endFill=0;html=1;rounded=0;edgeStyle=orthogonalEdgeStyle;" parent="0xxUbrqtfHlNQfprpKH4-30" source="LHFAvSVSOQKZk2P5IHYc-19" target="LHFAvSVSOQKZk2P5IHYc-11" edge="1">
          <mxGeometry width="160" relative="1" as="geometry">
            <mxPoint x="190" y="250" as="sourcePoint" />
            <mxPoint x="250" y="196" as="targetPoint" />
            <Array as="points">
              <mxPoint x="610" y="310" />
              <mxPoint x="430" y="310" />
            </Array>
          </mxGeometry>
        </mxCell>
        <mxCell id="LHFAvSVSOQKZk2P5IHYc-23" value="Microbus" style="swimlane;fontStyle=1;align=center;verticalAlign=top;childLayout=stackLayout;horizontal=1;startSize=26;horizontalStack=0;resizeParent=1;resizeParentMax=0;resizeLast=0;collapsible=1;marginBottom=0;whiteSpace=wrap;html=1;" parent="0xxUbrqtfHlNQfprpKH4-30" vertex="1">
          <mxGeometry x="760" y="86" width="160" height="112" as="geometry" />
        </mxCell>
        <mxCell id="0xxUbrqtfHlNQfprpKH4-46" value="- MODEL: str" style="text;strokeColor=none;fillColor=none;align=left;verticalAlign=top;spacingLeft=4;spacingRight=4;overflow=hidden;rotatable=0;points=[[0,0.5],[1,0.5]];portConstraint=eastwest;whiteSpace=wrap;html=1;" parent="LHFAvSVSOQKZk2P5IHYc-23" vertex="1">
          <mxGeometry y="26" width="160" height="26" as="geometry" />
        </mxCell>
        <mxCell id="LHFAvSVSOQKZk2P5IHYc-24" value="- LICENSE_PLATE: str" style="text;strokeColor=none;fillColor=none;align=left;verticalAlign=top;spacingLeft=4;spacingRight=4;overflow=hidden;rotatable=0;points=[[0,0.5],[1,0.5]];portConstraint=eastwest;whiteSpace=wrap;html=1;" parent="LHFAvSVSOQKZk2P5IHYc-23" vertex="1">
          <mxGeometry y="52" width="160" height="26" as="geometry" />
        </mxCell>
        <mxCell id="LHFAvSVSOQKZk2P5IHYc-25" value="" style="line;strokeWidth=1;fillColor=none;align=left;verticalAlign=middle;spacingTop=-1;spacingLeft=3;spacingRight=3;rotatable=0;labelPosition=right;points=[];portConstraint=eastwest;strokeColor=inherit;" parent="LHFAvSVSOQKZk2P5IHYc-23" vertex="1">
          <mxGeometry y="78" width="160" height="8" as="geometry" />
        </mxCell>
        <mxCell id="LHFAvSVSOQKZk2P5IHYc-26" value="+ get_car_info(): str" style="text;strokeColor=none;fillColor=none;align=left;verticalAlign=top;spacingLeft=4;spacingRight=4;overflow=hidden;rotatable=0;points=[[0,0.5],[1,0.5]];portConstraint=eastwest;whiteSpace=wrap;html=1;" parent="LHFAvSVSOQKZk2P5IHYc-23" vertex="1">
          <mxGeometry y="86" width="160" height="26" as="geometry" />
        </mxCell>
        <mxCell id="LHFAvSVSOQKZk2P5IHYc-59" value="1" style="endArrow=open;html=1;endSize=12;startArrow=diamondThin;startSize=14;startFill=1;edgeStyle=orthogonalEdgeStyle;align=left;verticalAlign=bottom;rounded=0;" parent="0xxUbrqtfHlNQfprpKH4-30" source="LHFAvSVSOQKZk2P5IHYc-19" target="LHFAvSVSOQKZk2P5IHYc-23" edge="1">
          <mxGeometry x="-0.8431" relative="1" as="geometry">
            <mxPoint x="330" y="370" as="sourcePoint" />
            <mxPoint x="490" y="370" as="targetPoint" />
            <Array as="points">
              <mxPoint x="640" y="145" />
            </Array>
            <mxPoint as="offset" />
          </mxGeometry>
        </mxCell>
        <mxCell id="0xxUbrqtfHlNQfprpKH4-47" value="Route" style="swimlane;fontStyle=1;align=center;verticalAlign=top;childLayout=stackLayout;horizontal=1;startSize=26;horizontalStack=0;resizeParent=1;resizeParentMax=0;resizeLast=0;collapsible=1;marginBottom=0;whiteSpace=wrap;html=1;" parent="0xxUbrqtfHlNQfprpKH4-30" vertex="1">
          <mxGeometry x="860" y="440" width="160" height="112" as="geometry" />
        </mxCell>
        <mxCell id="0xxUbrqtfHlNQfprpKH4-48" value="- name: str" style="text;strokeColor=none;fillColor=none;align=left;verticalAlign=top;spacingLeft=4;spacingRight=4;overflow=hidden;rotatable=0;points=[[0,0.5],[1,0.5]];portConstraint=eastwest;whiteSpace=wrap;html=1;" parent="0xxUbrqtfHlNQfprpKH4-47" vertex="1">
          <mxGeometry y="26" width="160" height="26" as="geometry" />
        </mxCell>
        <mxCell id="0xxUbrqtfHlNQfprpKH4-63" value="- path: list[Location]" style="text;strokeColor=none;fillColor=none;align=left;verticalAlign=top;spacingLeft=4;spacingRight=4;overflow=hidden;rotatable=0;points=[[0,0.5],[1,0.5]];portConstraint=eastwest;whiteSpace=wrap;html=1;" parent="0xxUbrqtfHlNQfprpKH4-47" vertex="1">
          <mxGeometry y="52" width="160" height="26" as="geometry" />
        </mxCell>
        <mxCell id="0xxUbrqtfHlNQfprpKH4-49" value="" style="line;strokeWidth=1;fillColor=none;align=left;verticalAlign=middle;spacingTop=-1;spacingLeft=3;spacingRight=3;rotatable=0;labelPosition=right;points=[];portConstraint=eastwest;strokeColor=inherit;" parent="0xxUbrqtfHlNQfprpKH4-47" vertex="1">
          <mxGeometry y="78" width="160" height="8" as="geometry" />
        </mxCell>
        <mxCell id="0xxUbrqtfHlNQfprpKH4-50" value="+ get_route_info(): str" style="text;strokeColor=none;fillColor=none;align=left;verticalAlign=top;spacingLeft=4;spacingRight=4;overflow=hidden;rotatable=0;points=[[0,0.5],[1,0.5]];portConstraint=eastwest;whiteSpace=wrap;html=1;" parent="0xxUbrqtfHlNQfprpKH4-47" vertex="1">
          <mxGeometry y="86" width="160" height="26" as="geometry" />
        </mxCell>
        <mxCell id="0xxUbrqtfHlNQfprpKH4-56" value="1" style="endArrow=open;html=1;endSize=12;startArrow=diamondThin;startSize=14;startFill=1;edgeStyle=orthogonalEdgeStyle;align=left;verticalAlign=bottom;rounded=0;" parent="0xxUbrqtfHlNQfprpKH4-30" source="LHFAvSVSOQKZk2P5IHYc-31" target="0xxUbrqtfHlNQfprpKH4-47" edge="1">
          <mxGeometry x="-1" y="3" relative="1" as="geometry">
            <mxPoint x="520" y="420" as="sourcePoint" />
            <mxPoint x="680" y="420" as="targetPoint" />
          </mxGeometry>
        </mxCell>
        <mxCell id="0xxUbrqtfHlNQfprpKH4-57" value="1..N" style="endArrow=open;html=1;endSize=12;startArrow=diamondThin;startSize=14;startFill=0;edgeStyle=orthogonalEdgeStyle;align=left;verticalAlign=bottom;rounded=0;" parent="0xxUbrqtfHlNQfprpKH4-30" source="LHFAvSVSOQKZk2P5IHYc-19" target="0xxUbrqtfHlNQfprpKH4-47" edge="1">
          <mxGeometry x="-1" y="3" relative="1" as="geometry">
            <mxPoint x="520" y="420" as="sourcePoint" />
            <mxPoint x="680" y="420" as="targetPoint" />
            <Array as="points">
              <mxPoint x="890" y="373" />
            </Array>
          </mxGeometry>
        </mxCell>
        <mxCell id="0xxUbrqtfHlNQfprpKH4-86" value="Location" style="swimlane;fontStyle=1;align=center;verticalAlign=top;childLayout=stackLayout;horizontal=1;startSize=26;horizontalStack=0;resizeParent=1;resizeParentMax=0;resizeLast=0;collapsible=1;marginBottom=0;whiteSpace=wrap;html=1;" parent="0xxUbrqtfHlNQfprpKH4-30" vertex="1">
          <mxGeometry x="890" y="218" width="160" height="112" as="geometry" />
        </mxCell>
        <mxCell id="0xxUbrqtfHlNQfprpKH4-91" value="+ NAME: str" style="text;strokeColor=none;fillColor=none;align=left;verticalAlign=top;spacingLeft=4;spacingRight=4;overflow=hidden;rotatable=0;points=[[0,0.5],[1,0.5]];portConstraint=eastwest;whiteSpace=wrap;html=1;" parent="0xxUbrqtfHlNQfprpKH4-86" vertex="1">
          <mxGeometry y="26" width="160" height="26" as="geometry" />
        </mxCell>
        <mxCell id="0xxUbrqtfHlNQfprpKH4-92" value="+ LONGITUDE: float" style="text;strokeColor=none;fillColor=none;align=left;verticalAlign=top;spacingLeft=4;spacingRight=4;overflow=hidden;rotatable=0;points=[[0,0.5],[1,0.5]];portConstraint=eastwest;whiteSpace=wrap;html=1;" parent="0xxUbrqtfHlNQfprpKH4-86" vertex="1">
          <mxGeometry y="52" width="160" height="26" as="geometry" />
        </mxCell>
        <mxCell id="0xxUbrqtfHlNQfprpKH4-87" value="+ LATITUDE: float" style="text;strokeColor=none;fillColor=none;align=left;verticalAlign=top;spacingLeft=4;spacingRight=4;overflow=hidden;rotatable=0;points=[[0,0.5],[1,0.5]];portConstraint=eastwest;whiteSpace=wrap;html=1;" parent="0xxUbrqtfHlNQfprpKH4-86" vertex="1">
          <mxGeometry y="78" width="160" height="26" as="geometry" />
        </mxCell>
        <mxCell id="0xxUbrqtfHlNQfprpKH4-89" value="" style="line;strokeWidth=1;fillColor=none;align=left;verticalAlign=middle;spacingTop=-1;spacingLeft=3;spacingRight=3;rotatable=0;labelPosition=right;points=[];portConstraint=eastwest;strokeColor=inherit;" parent="0xxUbrqtfHlNQfprpKH4-86" vertex="1">
          <mxGeometry y="104" width="160" height="8" as="geometry" />
        </mxCell>
        <mxCell id="0xxUbrqtfHlNQfprpKH4-94" value="1..N" style="endArrow=open;html=1;endSize=12;startArrow=diamondThin;startSize=14;startFill=1;edgeStyle=orthogonalEdgeStyle;align=left;verticalAlign=bottom;rounded=0;" parent="0xxUbrqtfHlNQfprpKH4-30" source="0xxUbrqtfHlNQfprpKH4-47" target="0xxUbrqtfHlNQfprpKH4-86" edge="1">
          <mxGeometry x="-0.8571" y="-10" relative="1" as="geometry">
            <mxPoint x="510" y="440" as="sourcePoint" />
            <mxPoint x="670" y="440" as="targetPoint" />
            <Array as="points">
              <mxPoint x="940" y="380" />
              <mxPoint x="970" y="380" />
            </Array>
            <mxPoint as="offset" />
          </mxGeometry>
        </mxCell>
        <mxCell id="0xxUbrqtfHlNQfprpKH4-120" value="Use" style="endArrow=open;endSize=12;dashed=1;html=1;rounded=0;edgeStyle=orthogonalEdgeStyle;elbow=vertical;" parent="0xxUbrqtfHlNQfprpKH4-30" source="LHFAvSVSOQKZk2P5IHYc-11" edge="1">
          <mxGeometry width="160" relative="1" as="geometry">
            <mxPoint x="390.00000000000045" y="224" as="sourcePoint" />
            <mxPoint x="878.2399999999998" y="800.0000000000005" as="targetPoint" />
            <Array as="points">
              <mxPoint x="390" y="700" />
              <mxPoint x="878" y="700" />
            </Array>
          </mxGeometry>
        </mxCell>
        <mxCell id="0xxUbrqtfHlNQfprpKH4-128" value="Use" style="endArrow=open;endSize=12;dashed=1;html=1;rounded=0;edgeStyle=orthogonalEdgeStyle;" parent="WIyWlLk6GJQsqaUBKTNV-1" source="0xxUbrqtfHlNQfprpKH4-47" target="LHFAvSVSOQKZk2P5IHYc-47" edge="1">
          <mxGeometry width="160" relative="1" as="geometry">
            <mxPoint x="370" y="-86" as="sourcePoint" />
            <mxPoint x="530" y="-86" as="targetPoint" />
            <Array as="points">
              <mxPoint x="140" y="20" />
              <mxPoint x="290" y="20" />
            </Array>
          </mxGeometry>
        </mxCell>
        <mxCell id="0xxUbrqtfHlNQfprpKH4-129" value="Use" style="endArrow=open;endSize=12;dashed=1;html=1;rounded=0;edgeStyle=orthogonalEdgeStyle;elbow=vertical;" parent="WIyWlLk6GJQsqaUBKTNV-1" source="LHFAvSVSOQKZk2P5IHYc-27" target="LHFAvSVSOQKZk2P5IHYc-69" edge="1">
          <mxGeometry width="160" relative="1" as="geometry">
            <mxPoint x="-400" y="-446" as="sourcePoint" />
            <mxPoint x="88.23999999999978" y="130.00000000000045" as="targetPoint" />
            <Array as="points">
              <mxPoint x="-840" y="-502" />
              <mxPoint x="-840" y="50" />
              <mxPoint x="-360" y="50" />
              <mxPoint x="-360" y="261" />
            </Array>
          </mxGeometry>
        </mxCell>
      </root>
    </mxGraphModel>
  </diagram>
</mxfile>
